<mxfile host="app.diagrams.net" agent="Mozilla/5.0 (Windows NT 10.0; Win64; x64) AppleWebKit/537.36 (KHTML, like Gecko) Chrome/133.0.0.0 Safari/537.36" version="26.0.16">
  <diagram name="Page-1" id="w-GSn4rVRWABjTmaKZI6">
    <mxGraphModel grid="1" page="1" gridSize="10" guides="1" tooltips="1" connect="1" arrows="1" fold="1" pageScale="1" pageWidth="827" pageHeight="1169" math="0" shadow="0">
      <root>
        <mxCell id="0" />
        <mxCell id="1" parent="0" />
        <mxCell id="LCSe7PTozADsxGTUK0A_-2" value="" style="ellipse;whiteSpace=wrap;html=1;fillColor=#eeeeee;strokeColor=#36393d;" vertex="1" parent="1">
          <mxGeometry x="100" y="780" width="950" height="610" as="geometry" />
        </mxCell>
        <mxCell id="LCSe7PTozADsxGTUK0A_-3" value="Home" style="text;html=1;align=center;verticalAlign=middle;resizable=0;points=[];autosize=1;strokeColor=none;fillColor=none;fontSize=17;" vertex="1" parent="1">
          <mxGeometry x="340" y="830" width="70" height="30" as="geometry" />
        </mxCell>
        <mxCell id="LCSe7PTozADsxGTUK0A_-11" style="rounded=0;orthogonalLoop=1;jettySize=auto;html=1;exitX=1;exitY=0;exitDx=0;exitDy=0;entryX=0.25;entryY=1;entryDx=0;entryDy=0;" edge="1" parent="1" source="LCSe7PTozADsxGTUK0A_-5" target="LCSe7PTozADsxGTUK0A_-10">
          <mxGeometry relative="1" as="geometry" />
        </mxCell>
        <mxCell id="LCSe7PTozADsxGTUK0A_-5" value="&lt;font style=&quot;font-size: 14px;&quot;&gt;Spouse of a person with dementia - notify her husband about his daily task&lt;/font&gt;" style="ellipse;whiteSpace=wrap;html=1;" vertex="1" parent="1">
          <mxGeometry x="265" y="1070" width="200" height="160" as="geometry" />
        </mxCell>
        <mxCell id="LCSe7PTozADsxGTUK0A_-13" style="rounded=0;orthogonalLoop=1;jettySize=auto;html=1;exitX=0;exitY=0;exitDx=0;exitDy=0;entryX=0.75;entryY=1;entryDx=0;entryDy=0;" edge="1" parent="1" source="LCSe7PTozADsxGTUK0A_-6" target="LCSe7PTozADsxGTUK0A_-10">
          <mxGeometry relative="1" as="geometry" />
        </mxCell>
        <mxCell id="LCSe7PTozADsxGTUK0A_-6" value="&lt;font style=&quot;font-size: 14px;&quot;&gt;Person with dementia - read the notes to know what to do&lt;/font&gt;" style="ellipse;whiteSpace=wrap;html=1;" vertex="1" parent="1">
          <mxGeometry x="630" y="1065" width="210" height="170" as="geometry" />
        </mxCell>
        <mxCell id="LCSe7PTozADsxGTUK0A_-8" value="" style="rounded=0;whiteSpace=wrap;html=1;" vertex="1" parent="1">
          <mxGeometry x="455" y="900" width="175" height="60" as="geometry" />
        </mxCell>
        <mxCell id="LCSe7PTozADsxGTUK0A_-10" value="&lt;font style=&quot;font-size: 15px;&quot;&gt;notes&lt;/font&gt;" style="rounded=0;whiteSpace=wrap;html=1;" vertex="1" parent="1">
          <mxGeometry x="460" y="910" width="175" height="60" as="geometry" />
        </mxCell>
        <mxCell id="LCSe7PTozADsxGTUK0A_-12" value="&lt;font style=&quot;font-size: 14px;&quot;&gt;write&lt;/font&gt;" style="text;html=1;align=center;verticalAlign=middle;resizable=0;points=[];autosize=1;strokeColor=none;fillColor=none;" vertex="1" parent="1">
          <mxGeometry x="415" y="1010" width="50" height="30" as="geometry" />
        </mxCell>
        <mxCell id="LCSe7PTozADsxGTUK0A_-14" value="&lt;font style=&quot;font-size: 14px;&quot;&gt;read&lt;/font&gt;" style="text;html=1;align=center;verticalAlign=middle;resizable=0;points=[];autosize=1;strokeColor=none;fillColor=none;" vertex="1" parent="1">
          <mxGeometry x="580" y="1040" width="50" height="30" as="geometry" />
        </mxCell>
        <mxCell id="LCSe7PTozADsxGTUK0A_-16" value="&lt;font style=&quot;font-size: 14px;&quot;&gt;Get frustrated&lt;/font&gt;" style="text;html=1;align=center;verticalAlign=middle;resizable=0;points=[];autosize=1;strokeColor=none;fillColor=none;" vertex="1" parent="1">
          <mxGeometry x="664" y="970" width="110" height="30" as="geometry" />
        </mxCell>
        <mxCell id="LCSe7PTozADsxGTUK0A_-17" value="" style="shape=mxgraph.signs.safety.high_voltage_2;html=1;pointerEvents=1;fillColor=#FFB343;strokeColor=none;verticalLabelPosition=bottom;verticalAlign=top;align=center;sketch=0;" vertex="1" parent="1">
          <mxGeometry x="660" y="970" width="10" height="30" as="geometry" />
        </mxCell>
        <mxCell id="LCSe7PTozADsxGTUK0A_-18" value="&lt;font style=&quot;font-size: 14px;&quot;&gt;forget to read&lt;/font&gt;" style="text;html=1;align=center;verticalAlign=middle;resizable=0;points=[];autosize=1;strokeColor=none;fillColor=none;" vertex="1" parent="1">
          <mxGeometry x="690" y="1010" width="110" height="30" as="geometry" />
        </mxCell>
        <mxCell id="LCSe7PTozADsxGTUK0A_-19" value="" style="shape=mxgraph.signs.safety.high_voltage_2;html=1;pointerEvents=1;fillColor=#FFB343;strokeColor=none;verticalLabelPosition=bottom;verticalAlign=top;align=center;sketch=0;" vertex="1" parent="1">
          <mxGeometry x="690" y="1010" width="10" height="30" as="geometry" />
        </mxCell>
      </root>
    </mxGraphModel>
  </diagram>
</mxfile>
